# xmcd
#
# Track frame offsets: 
#        150
#        19478
#        40483
#        60103
#        76278
#        103182
#        119195
#        141509
#        162212
#        177017
#
# Disc length: 2662 seconds
#
# Revision: 6
# Processed by: cddbd v1.5.2PL0 Copyright (c) Steve Scherf et al.
# Submitted via: ExactAudioCopy v0.99pb5
#
DISCID=890a640a
DTITLE=Back Street Crawler - The Band Plays On
DYEAR=1975
DGENRE=Rock
TTITLE0=Hoo Doo Woman
TTITLE1=New York, New York
TTITLE2=Stealing My Way
TTITLE3=Survivor
TTITLE4=It's A Long Way Down To The Top
TTITLE5=All The Girls Are Crazy
TTITLE6=Jason Blue
TTITLE7=Train Song
TTITLE8=Rock and Roll Junkie
TTITLE9=The Band Plays On
EXTD=YEAR: 1975 ID3G: 17
EXTT0=
EXTT1=
EXTT2=
EXTT3=
EXTT4=
EXTT5=
EXTT6=
EXTT7=
EXTT8=
EXTT9=
PLAYORDER=
